<svg width="64" height="64" viewBox="0 0 64 64" fill="none" xmlns="http://www.w3.org/2000/svg">
  <defs>
    <linearGradient id="crownGradientIconDark" x1="0%" y1="0%" x2="0%" y2="100%">
      <stop offset="0%" stop-color="#FFF700"/>
      <stop offset="100%" stop-color="#FF9800"/>
    </linearGradient>
    <radialGradient id="jewelIconDark" cx="50%" cy="30%" r="70%">
      <stop offset="0%" stop-color="#FF6B35"/>
      <stop offset="100%" stop-color="#E53935"/>
    </radialGradient>
  </defs>
  
  <!-- Crown Base -->
  <path d="M8 42 L56 42 L54 48 L10 48 Z" fill="url(#crownGradientIconDark)" stroke="#E65100" stroke-width="1"/>
  
  <!-- Crown Band -->
  <rect x="9" y="37" width="46" height="6" rx="2" fill="url(#crownGradientIconDark)" stroke="#E65100" stroke-width="0.5"/>
  
  <!-- Crown Points -->
  <path d="M14 37 L14 22 L19 26 L24 15 L29 25 L32 10 L35 25 L40 15 L45 26 L50 22 L50 37 Z" 
        fill="url(#crownGradientIconDark)" stroke="#E65100" stroke-width="1.5" stroke-linejoin="round"/>
  
  <!-- Central Ruby -->
  <circle cx="32" cy="18" r="4" fill="url(#jewelIconDark)" stroke="#B71C1C" stroke-width="1"/>
  <circle cx="32" cy="18" r="2" fill="#FFAB91" opacity="0.9"/>
  
  <!-- Side Jewels -->
  <circle cx="24" cy="24" r="2.5" fill="#42A5F5" stroke="#1976D2" stroke-width="0.5"/>
  <circle cx="40" cy="24" r="2.5" fill="#42A5F5" stroke="#1976D2" stroke-width="0.5"/>
  
  <!-- Royal Orb -->
  <circle cx="32" cy="8" r="3" fill="url(#crownGradientIconDark)" stroke="#E65100" stroke-width="1"/>
  <circle cx="32" cy="8" r="1.5" fill="#FFFDE7"/>
</svg>