<svg width="64" height="64" viewBox="0 0 64 64" fill="none" xmlns="http://www.w3.org/2000/svg">
  <defs>
    <linearGradient id="crownGradientIcon" x1="0%" y1="0%" x2="0%" y2="100%">
      <stop offset="0%" stop-color="#FFD700"/>
      <stop offset="100%" stop-color="#FF8F00"/>
    </linearGradient>
    <radialGradient id="jewelIcon" cx="50%" cy="30%" r="70%">
      <stop offset="0%" stop-color="#FF5722"/>
      <stop offset="100%" stop-color="#D32F2F"/>
    </radialGradient>
  </defs>
  
  <!-- Crown Base -->
  <path d="M8 42 L56 42 L54 48 L10 48 Z" fill="url(#crownGradientIcon)" stroke="#E65100" stroke-width="1"/>
  
  <!-- Crown Band -->
  <rect x="9" y="37" width="46" height="6" rx="2" fill="url(#crownGradientIcon)" stroke="#E65100" stroke-width="0.5"/>
  
  <!-- Crown Points -->
  <path d="M14 37 L14 22 L19 26 L24 15 L29 25 L32 10 L35 25 L40 15 L45 26 L50 22 L50 37 Z" 
        fill="url(#crownGradientIcon)" stroke="#E65100" stroke-width="1.5" stroke-linejoin="round"/>
  
  <!-- Central Ruby -->
  <circle cx="32" cy="18" r="4" fill="url(#jewelIcon)" stroke="#B71C1C" stroke-width="1"/>
  <circle cx="32" cy="18" r="2" fill="#FF8A80" opacity="0.8"/>
  
  <!-- Side Jewels -->
  <circle cx="24" cy="24" r="2.5" fill="#2196F3" stroke="#1565C0" stroke-width="0.5"/>
  <circle cx="40" cy="24" r="2.5" fill="#2196F3" stroke="#1565C0" stroke-width="0.5"/>
  
  <!-- Royal Orb -->
  <circle cx="32" cy="8" r="3" fill="url(#crownGradientIcon)" stroke="#E65100" stroke-width="1"/>
  <circle cx="32" cy="8" r="1.5" fill="#FFF59D"/>
</svg>