<svg width="128" height="128" viewBox="0 0 128 128" fill="none" xmlns="http://www.w3.org/2000/svg">
  <defs>
    <!-- Gradients optimized for dark theme -->
    <linearGradient id="crownGradientDark" x1="0%" y1="0%" x2="0%" y2="100%">
      <stop offset="0%" stop-color="#FFF700"/>
      <stop offset="50%" stop-color="#FFD54F"/>
      <stop offset="100%" stop-color="#FF9800"/>
    </linearGradient>
    <linearGradient id="bandGradientDark" x1="0%" y1="0%" x2="0%" y2="100%">
      <stop offset="0%" stop-color="#FFEB3B"/>
      <stop offset="100%" stop-color="#FFD54F"/>
    </linearGradient>
    <radialGradient id="jewelGradientDark" cx="50%" cy="30%" r="70%">
      <stop offset="0%" stop-color="#FF6B35"/>
      <stop offset="100%" stop-color="#E53935"/>
    </radialGradient>
    <radialGradient id="sapphireGradientDark" cx="50%" cy="30%" r="70%">
      <stop offset="0%" stop-color="#42A5F5"/>
      <stop offset="100%" stop-color="#1976D2"/>
    </radialGradient>
    <radialGradient id="emeraldGradientDark" cx="50%" cy="30%" r="70%">
      <stop offset="0%" stop-color="#66BB6A"/>
      <stop offset="100%" stop-color="#388E3C"/>
    </radialGradient>
  </defs>
  
  <!-- Crown Shadow -->
  <ellipse cx="64" cy="100" rx="45" ry="8" fill="#000000" opacity="0.3"/>
  
  <!-- Crown Base -->
  <path d="M16 85 L112 85 L108 96 L20 96 Z" fill="url(#crownGradientDark)" stroke="#E65100" stroke-width="1.5"/>
  
  <!-- Crown Band with detailed pattern -->
  <rect x="18" y="75" width="92" height="12" rx="3" fill="url(#bandGradientDark)" stroke="#E65100" stroke-width="1"/>
  
  <!-- Band decorative pattern -->
  <g opacity="0.8">
    <circle cx="30" cy="81" r="2" fill="#FF9800"/>
    <circle cx="42" cy="81" r="2" fill="#FF9800"/>
    <circle cx="54" cy="81" r="2" fill="#FF9800"/>
    <circle cx="66" cy="81" r="2" fill="#FF9800"/>
    <circle cx="78" cy="81" r="2" fill="#FF9800"/>
    <circle cx="90" cy="81" r="2" fill="#FF9800"/>
    <circle cx="98" cy="81" r="2" fill="#FF9800"/>
  </g>
  
  <!-- Crown Main Structure with more elegant peaks -->
  <path d="M28 75 L28 45 L38 52 L48 30 L58 50 L64 20 L70 50 L80 30 L90 52 L100 45 L100 75 Z" 
        fill="url(#crownGradientDark)" stroke="#E65100" stroke-width="2" stroke-linejoin="round"/>
  
  <!-- Crown inner highlights -->
  <path d="M30 73 L30 47 L38 52 L46 33 L56 51 L64 25 L72 51 L82 33 L90 52 L98 47 L98 73" 
        fill="none" stroke="#FFFF8D" stroke-width="1.5" opacity="0.9"/>
  
  <!-- Central Ruby -->
  <circle cx="64" cy="35" r="8" fill="url(#jewelGradientDark)" stroke="#B71C1C" stroke-width="2"/>
  <circle cx="64" cy="35" r="4" fill="#FFAB91" opacity="0.9"/>
  <circle cx="62" cy="32" r="2" fill="#FFE0B2" opacity="0.95"/>
  
  <!-- Side Sapphires -->
  <circle cx="48" cy="48" r="6" fill="url(#sapphireGradientDark)" stroke="#0D47A1" stroke-width="1.5"/>
  <circle cx="48" cy="48" r="3" fill="#90CAF9" opacity="0.9"/>
  
  <circle cx="80" cy="48" r="6" fill="url(#sapphireGradientDark)" stroke="#0D47A1" stroke-width="1.5"/>
  <circle cx="80" cy="48" r="3" fill="#90CAF9" opacity="0.9"/>
  
  <!-- Side Emeralds -->
  <circle cx="38" cy="58" r="4" fill="url(#emeraldGradientDark)" stroke="#1B5E20" stroke-width="1"/>
  <circle cx="38" cy="58" r="2" fill="#C8E6C9" opacity="0.9"/>
  
  <circle cx="90" cy="58" r="4" fill="url(#emeraldGradientDark)" stroke="#1B5E20" stroke-width="1"/>
  <circle cx="90" cy="58" r="2" fill="#C8E6C9" opacity="0.9"/>
  
  <!-- Peak jewels -->
  <circle cx="64" cy="22" r="3" fill="#AB47BC" stroke="#4A148C" stroke-width="1"/>
  <circle cx="48" cy="32" r="2.5" fill="#FF7043" stroke="#BF360C" stroke-width="1"/>
  <circle cx="80" cy="32" r="2.5" fill="#FF7043" stroke="#BF360C" stroke-width="1"/>
  
  <!-- Royal Orb on top -->
  <circle cx="64" cy="12" r="6" fill="url(#crownGradientDark)" stroke="#E65100" stroke-width="2"/>
  <circle cx="64" cy="12" r="3" fill="#FFFDE7" opacity="0.95"/>
  <path d="M64 9 L64 15 M61 12 L67 12" stroke="#E65100" stroke-width="1.5" stroke-linecap="round"/>
  
  <!-- Crown base shadow -->
  <path d="M20 96 L108 96 L106 102 L22 102 Z" fill="#BF360C" opacity="0.5"/>
</svg>