<?xml version="1.0" encoding="UTF-8"?>
<svg viewBox="0 0 100 100" xmlns="http://www.w3.org/2000/svg">
  <defs>
    <linearGradient id="crownGradient" x1="0%" y1="0%" x2="100%" y2="100%">
      <stop offset="0%" style="stop-color:#FFD700;stop-opacity:1" />
      <stop offset="50%" style="stop-color:#FFA500;stop-opacity:1" />
      <stop offset="100%" style="stop-color:#FF8C00;stop-opacity:1" />
    </linearGradient>
    <linearGradient id="gemGradient" x1="0%" y1="0%" x2="100%" y2="100%">
      <stop offset="0%" style="stop-color:#FF6B6B;stop-opacity:1" />
      <stop offset="50%" style="stop-color:#FF4757;stop-opacity:1" />
      <stop offset="100%" style="stop-color:#FF3742;stop-opacity:1" />
    </linearGradient>
  </defs>
  
  <!-- 背景圆形 -->
  <circle cx="50" cy="50" r="45" fill="#1a1a2e" stroke="#16213e" stroke-width="2"/>
  
  <!-- 皇冠底座 -->
  <rect x="20" y="65" width="60" height="8" rx="4" fill="url(#crownGradient)"/>
  
  <!-- 皇冠主体 -->
  <path d="M25 65 L25 45 L35 55 L42 35 L50 50 L58 35 L65 55 L75 45 L75 65 Z" 
        fill="url(#crownGradient)" stroke="#B8860B" stroke-width="1"/>
  
  <!-- 中央宝石 -->
  <circle cx="50" cy="50" r="4" fill="url(#gemGradient)"/>
  
  <!-- 侧边宝石 -->
  <circle cx="35" cy="55" r="2.5" fill="url(#gemGradient)"/>
  <circle cx="65" cy="55" r="2.5" fill="url(#gemGradient)"/>
  
  <!-- 光芒效果 -->
  <path d="M50 30 L52 38 L60 36 L54 42 L62 48 L54 48 L58 56 L50 52 L42 56 L46 48 L38 48 L46 42 L40 36 L48 38 Z" 
        fill="#FFD700" opacity="0.3"/>
  
  <!-- 底部装饰线 -->
  <rect x="22" y="73" width="56" height="2" rx="1" fill="#DAA520"/>
</svg> 